<svg width="65" height="23" viewBox="0 0 65 23" fill="none" xmlns="http://www.w3.org/2000/svg">
<path d="M0.0148844 14.1412L1.33084 11.0631C2.77321 12.1337 4.66169 12.6988 6.54273 12.6988C7.92563 12.6988 8.80298 12.1635 8.80298 11.4423C8.77324 9.08542 0.475834 10.8475 0.416354 5.15978C0.386615 2.26759 2.95911 0.0371094 6.60222 0.0371094C8.76579 0.0371094 10.9368 0.572432 12.4758 1.7992L11.2193 5.00365C10.0223 4.08915 8.08178 3.3977 6.41635 3.3977C5.28624 3.3977 4.52789 3.93301 4.52789 4.62446C4.55763 6.85494 12.9145 5.62818 13.0111 11.1598C13.0111 14.0148 10.4981 16.0891 6.91448 16.0891C4.27508 16.0891 1.85873 15.4646 0 14.1412" fill="white"/>
<path d="M25.688 8.05185C25.688 5.91802 23.9928 4.2526 21.8218 4.2526C19.6508 4.2526 17.9557 5.94776 17.9557 8.05185C17.9557 10.1559 19.6805 11.8511 21.8218 11.8511C23.9631 11.8511 25.688 10.2154 25.688 8.05185ZM30.1118 0.356699V15.7842H25.6805V13.5834C24.6099 15.1819 22.9445 16.0964 20.7809 16.0964C16.7884 16.0964 13.6211 12.4831 13.6211 8.05185C13.6211 3.62063 16.7958 0.0444336 20.7809 0.0444336C22.9445 0.0444336 24.6099 0.951488 25.6805 2.55743V0.356699H30.1118Z" fill="white"/>
<path d="M43.3759 7.79925C43.3759 5.7249 41.6807 4.12639 39.5097 4.12639C37.3387 4.12639 35.6435 5.76208 35.6435 7.79925C35.6435 9.83642 37.3685 11.5093 39.5097 11.5093C41.651 11.5093 43.3759 9.91077 43.3759 7.79925ZM47.8071 0.319708V14.6766C47.8071 19.3606 43.9707 22.1189 39.3238 22.1189C36.7811 22.1189 33.7328 21.2044 32.2235 19.6654L34.3945 16.5873C35.7774 17.658 37.5023 18.1561 39.3238 18.1561C41.1454 18.1561 43.3759 16.7732 43.3759 14.6691V13.1598C42.3053 14.7286 40.6398 15.6134 38.4763 15.6134C34.4837 15.6134 31.3164 12.0966 31.3164 7.79182C31.3164 3.48699 34.4911 0 38.4763 0C40.6398 0 42.3053 0.877324 43.3759 2.45353V0.319708H47.8071Z" fill="white"/>
<path d="M60.0452 6.28989C59.8593 4.75086 58.4392 3.62075 56.811 3.62075C54.9597 3.62075 53.7329 4.62446 53.324 6.28989H60.0452ZM64.35 9.11517H53.2571C53.666 11.2193 55.1084 12.3196 57.2125 12.3196C58.5954 12.3196 60.0378 11.6951 60.5731 10.7508L64.0303 12.8549C62.9002 14.8995 60.3203 16.0891 57.1158 16.0891C52.5954 16.0891 49.0117 12.5724 49.0117 7.98505C49.0117 3.3977 52.5285 0.0371094 57.0266 0.0371094C61.205 0.0371094 64.469 3.2713 64.469 7.39026C64.469 7.92557 64.4392 8.52037 64.3425 9.11517" fill="white"/>
</svg>
